<svg xmlns="http://www.w3.org/2000/svg" xmlns:xlink="http://www.w3.org/1999/xlink" viewBox="0 0 500 500"><defs><style>.cls-1{fill:url(#linear-gradient);}.cls-2{fill:#d85303;}</style><linearGradient id="linear-gradient" x1="426.78" y1="426.78" x2="73.22" y2="73.22" gradientUnits="userSpaceOnUse"><stop offset="0"/><stop offset="0.41" stop-color="#121212"/><stop offset="1" stop-color="#333"/></linearGradient></defs><g id="Layer_2" data-name="Layer 2"><g id="Layer_1-2" data-name="Layer 1"><circle class="cls-1" cx="250" cy="250" r="250"/><path class="cls-2" d="M263.31,282.49c0-21.28.14-35.23.14-52.75a25.54,25.54,0,0,1,2.93-11.26c6.89-12.73,14.38-25.15,21.43-37.78,3-5.37,7-7.82,13.38-7.8,4.34,0,8-.39,13.19,0,5.71.39,7.51,1.15,7.44,7.12-.32,31.42-.14,62.84-.14,94.25,0,2.08-.14,4.74.47,6a3.68,3.68,0,0,0,3.32,2.08c7.24.35,14.47.16,22.21.16V150.93c-.18-.14-.46-.6-.76-.6-19.11-.07-38.27-.65-57.36.06-10.49.4-18.62,6.48-24.1,15.48-4.16,6.83-8,13.88-12,20.8-.92,1.6-2,3.12-3.54,5.48-4.85-8.42-9.42-16-13.7-23.8C229.46,156,219.2,149.89,205,150c-17.38.16-34.78.07-52.69.07V282.26h26.07c0-2.59.07-4.79.07-6.92,0-32,.09-64-.1-96,0-4.86,1-6.57,6.33-6.53s10.08.14,15.49,0a11.91,11.91,0,0,1,11.32,6.36c8,13.86,16,27.72,23.76,41.69,1.2,2.18,1.45,5.09,1.48,7.68.13,16,.18,32,0,48-.05,4.26.85,6,5.68,6C249.33,282.58,255.71,282.49,263.31,282.49Z"/><path class="cls-2" d="M263.31,349.94c0-21.28.14-35.23.14-52.75a25.54,25.54,0,0,1,2.93-11.26c6.89-12.73,14.38-25.15,21.43-37.78,3-5.37,7-7.82,13.38-7.8,4.34,0,8-.39,13.19,0,5.71.39,7.51,1.15,7.44,7.12-.32,31.42-.14,62.84-.14,94.25,0,2.08-.14,4.74.47,6a3.68,3.68,0,0,0,3.32,2.08c7.24.35,14.47.16,22.21.16V218.38c-.18-.14-.46-.6-.76-.6-19.11-.07-38.27-.65-57.36.06-10.49.4-18.62,6.48-24.1,15.48-4.16,6.83-8,13.88-12,20.8-.92,1.6-2,3.12-3.54,5.48-4.85-8.42-9.42-16-13.7-23.8-6.79-12.36-17.05-18.46-31.24-18.35-17.38.16-34.78.07-52.69.07V349.71h26.07c0-2.59.07-4.79.07-6.92,0-32,.09-64-.1-96,0-4.86,1-6.57,6.33-6.52s10.08.13,15.49,0a11.91,11.91,0,0,1,11.32,6.36c8,13.86,16,27.72,23.76,41.69,1.2,2.18,1.45,5.09,1.48,7.68.13,16,.18,32,0,48-.05,4.26.85,5.95,5.68,5.95C249.33,350,255.71,349.94,263.31,349.94Z"/></g></g></svg>