<svg xmlns="http://www.w3.org/2000/svg" viewBox="0 0 952.66 975.28"><defs><style>.cls-1{fill:#d85303;}</style></defs><g id="Layer_2" data-name="Layer 2"><g id="Layer_1-2" data-name="Layer 1"><path class="cls-1" d="M541.24,646.08c0-103.79.67-171.81.67-257.21a124.47,124.47,0,0,1,14.31-54.94c33.58-62.05,70.09-122.63,104.46-184.22,14.65-26.17,34.15-38.13,65.25-38,21.19,0,39-1.92,64.34-.22,27.84,1.91,36.63,5.64,36.29,34.74-1.58,153.2-.68,306.4-.68,459.59,0,10.16-.67,23.13,2.26,29.11,3.6,7.22,9.8,9.81,16.22,10.15,35.27,1.69,70.55.79,108.3.79V4.52c-.91-.68-2.26-2.93-3.72-2.93-93.19-.34-186.61-3.16-279.69.34C618.09,3.84,578.42,33.51,551.72,77.4c-20.29,33.28-38.88,67.68-58.38,101.41-4.5,7.79-9.69,15.23-17.24,26.74-23.66-41.06-46-78.18-66.82-116.08C376.15,29.23,326.12-.56,256.93,0,172.19.8,87.33.35,0,.35V645H127.11c0-12.64.34-23.35.34-33.73.11-156,.45-312-.45-468.05-.11-23.7,5.07-32,30.87-31.82,25.58.23,49.14.68,75.5.23,25.47-.45,43.16,10.26,55.22,31,39,67.58,78.09,135.15,115.84,203.29,5.86,10.6,7.1,24.82,7.22,37.45.67,78,.9,156,0,234-.23,20.76,4.17,29,27.72,29C473.06,646.53,504.16,646.08,541.24,646.08Z"/><path class="cls-1" d="M541.24,975c0-103.79.67-171.81.67-257.21a124.51,124.51,0,0,1,14.31-54.94c33.58-62,70.09-122.62,104.46-184.22,14.65-26.17,34.15-38.13,65.25-38,21.19,0,39-1.91,64.34-.22,27.84,1.92,36.63,5.64,36.29,34.74-1.58,153.2-.68,306.4-.68,459.6,0,10.15-.67,23.12,2.26,29.1,3.6,7.22,9.8,9.82,16.22,10.16,35.27,1.69,70.55.79,108.3.79V333.43c-.91-.67-2.26-2.93-3.72-2.93-93.19-.34-186.61-3.16-279.69.34-51.16,1.92-90.83,31.59-117.53,75.47-20.29,33.28-38.88,67.69-58.38,101.42-4.5,7.78-9.69,15.23-17.24,26.73-23.66-41.06-46-78.17-66.82-116.08-33.13-60.24-83.16-90-152.35-89.46-84.74.79-169.6.34-256.93.34v644.6H127.11c0-12.63.34-23.35.34-33.73.11-156,.45-312-.45-468-.11-23.69,5.07-32,30.87-31.81,25.58.22,49.14.67,75.5.22,25.47-.45,43.16,10.27,55.22,31,39,67.58,78.09,135.15,115.84,203.29,5.86,10.6,7.1,24.82,7.22,37.45.67,78,.9,156,0,234-.23,20.76,4.17,29,27.72,29C473.06,975.44,504.16,975,541.24,975Z"/></g></g></svg>