<svg xmlns="http://www.w3.org/2000/svg" viewBox="0 0 1500 509.31"><defs><style>.cls-1{fill:#fff;}</style></defs><g id="Layer_2" data-name="Layer 2"><g id="Layer_1-2" data-name="Layer 1"><path class="cls-1" d="M193.27,509.13c0-37,.23-61.28.23-91.74a44.31,44.31,0,0,1,5.11-19.58c12-22.13,25-43.72,37.31-65.71,5.22-9.32,12.19-13.59,23.32-13.57,7.54,0,13.92-.7,23-.07,9.93.7,13.06,2,13,12.41-.55,54.65-.26,109.3-.25,164,0,3.63-.25,8.25.81,10.38a6.38,6.38,0,0,0,5.78,3.61c12.58.6,25.2.29,38.68.29V280.35c-.31-.25-.82-1-1.32-1-33.3-.12-66.64-1.11-99.89.12-18.25.68-32.44,11.26-42,26.93-7.24,11.88-13.89,24.12-20.86,36.17-1.62,2.79-3.48,5.43-6.14,9.55-8.46-14.65-16.41-27.9-23.85-41.42-11.82-21.47-29.71-32.1-54.41-31.91-30.27.23-60.54.05-91.73.05V508.75H45.39c0-4.5.12-8.31.12-12,0-55.65.17-111.3-.17-166.94-.05-8.45,1.79-11.42,11-11.34s17.55.25,27,.09c9.08-.16,15.4,3.65,19.7,11.07,13.94,24.09,27.88,48.19,41.37,72.53,2.1,3.79,2.52,8.87,2.56,13.36.22,27.83.32,55.65,0,83.47-.09,7.42,1.49,10.34,9.89,10.34C168.92,509.31,180,509.13,193.27,509.13Z"/><path class="cls-1" d="M193.19,229.82c0-36.89.23-61.08.23-91.43a44.18,44.18,0,0,1,5.1-19.52c12-22.06,24.93-43.58,37.18-65.48,5.2-9.3,12.15-13.55,23.24-13.53,7.52,0,13.88-.7,22.88-.07,9.9.7,13,2,12.92,12.37-.55,54.46-.26,108.93-.25,163.4,0,3.63-.25,8.22.81,10.35a6.38,6.38,0,0,0,5.75,3.6c12.54.59,25.13.28,38.55.28V1.81c-.31-.25-.81-1-1.31-1C305.1.66,271.88-.33,238.74.9c-18.19.67-32.33,11.22-41.84,26.84-7.22,11.84-13.85,24-20.79,36.05-1.61,2.78-3.47,5.41-6.12,9.52C161.56,58.71,153.64,45.5,146.22,32,134.44,10.62,116.61,0,92,.22,61.83.45,31.65.27.57.27V229.44H45.81c0-4.49.12-8.28.12-12,0-55.46.17-110.91-.17-166.37,0-8.42,1.79-11.38,11-11.3s17.49.25,26.87.09c9.05-.16,15.36,3.64,19.63,11,13.9,24,27.79,48,41.23,72.29,2.1,3.78,2.52,8.84,2.56,13.32.22,27.72.32,55.46,0,83.18-.09,7.4,1.48,10.31,9.85,10.31C168.93,230,180,229.82,193.19,229.82Z"/><path class="cls-1" d="M1459.18,318.76q-107.9,0-215.8-.07c-19.18,0-25.71,6.81-25.78,26.87-.08,22.37,6.35,29.94,26.13,29.94q94.44,0,188.89-.25c33.56-.06,62.43,23.36,66.53,54,5.16,38.54-13.55,68.83-48.5,78.23a46.05,46.05,0,0,1-11.8,1.55q-123.43.15-246.86.08h-7.22c0-11.5.13-22.53,0-33.07-.13-8.21,5.8-6.54,10.49-6.54q95.44-.07,190.9,0c15.65,0,31.31,0,47-.16,11.68-.14,18.9-6.32,20.25-17.64a86.25,86.25,0,0,0,.28-16.85c-1-13.28-8.56-19.54-22.59-19.54q-95.44,0-190.89-.08c-33.22-.07-59.55-19.35-66.81-50.5-12.4-53.13,28.53-86.72,65.53-86.16,78.61,1.2,157.26,1.93,235.87.18,8.22-.18,12.54-.18,12.54,9.89v30Z"/><path class="cls-1" d="M791.82,278.88h11.33l247.77.06c39.67,0,66.71,25.62,68.28,64.88.36,8.92.11,17.88-.08,26.82-.48,23-11,40.58-30.39,52.67-5.78,3.61-6.67,6.63-3.74,12.57,9.66,19.6,18.87,39.42,28.18,59.2,1.92,4.07,4.38,8.15,7.47,14-16.82,0-33.6.32-48.78-.32-2.51-.1-5.74-3.94-7.13-6.79q-14.62-29.88-28.48-60.14c-2.66-5.83-5.93-8.23-12.73-8.19q-87.91.45-175.82,0c-8.19,0-11,2.31-10.75,10.66,0,21.2.18,42.27.18,64.14H791.82Zm45.3,114.37a70.44,70.44,0,0,0,7.16.79c20.63-.19,41.27-.67,61.9-.63,47.94.09,95.87.52,143.8.6,15.19,0,22.68-7.4,23.16-22.49.31-9.92.24-19.86,0-29.79-.31-15.89-7.52-23-23.43-23-27.64-.08-55.27,0-82.9,0q-59.93,0-119.85.05c-4.35,0-9.94-1.44-9.92,6.12C837.16,347.35,837.12,369.81,837.12,393.25Z"/><path class="cls-1" d="M731.43,508.65H684.69V319.4c-14.9,0-28.5-.8-41.91.43-4.86.44-9.91,5.12-13.77,9q-85.08,84.56-169.66,169.62c-7.58,7.66-9.2,10.9-20.87,10.9-15.48,0-36.6-.23-54.88-.23,4-4.58,4.23-4.84,8.07-9.05q100.17-100.42,200.4-200.8c13.82-13.87,29.9-21.05,50-20.48,26.61.76,53.26.33,79.88.11,6.4-.06,9.73,1.19,9.71,8.63-.21,71.83-.12,143.66-.14,215.48C731.5,504.56,731.43,506.14,731.43,508.65Z"/><path class="cls-1" d="M1484.33,229.34h-46.58V40.71c-14.85,0-28.41-.81-41.78.42-4.84.45-9.87,5.1-13.72,8.93q-84.81,84.29-169.11,169.07c-7.56,7.63-9.16,10.87-20.8,10.87-15.43,0-36.48-.24-54.7-.24,4-4.56,4.22-4.82,8-9q99.85-100.1,199.75-200.14c13.78-13.82,29.8-21,49.82-20.42,26.52.76,53.08.33,79.62.11,6.37,0,9.69,1.19,9.67,8.61-.2,71.59-.11,143.19-.14,214.78C1484.4,225.26,1484.33,226.84,1484.33,229.34Z"/><path class="cls-1" d="M684,105.54c-.37,43.23,5.47,35.44-34.43,35.74-66.83.5-133.67.13-203,.13-.38,7.41-.45,13.12-1,18.78-1.44,14.58,5.45,20.05,19.57,19.89,34.49-.39,69-.14,103.47-.14,43,0,86,.49,129-.23,13.35-.22,19,2.68,18.47,17.43-1.35,37.35,4.73,32.62-33.41,32.71q-109.85.26-219.69-.1c-47.47-.15-75.18-28.12-75.14-75.24,0-17,.29-34-.05-50.93-.18-8.89,3.42-12.22,12.24-12.2,90.75.16,181.49,0,272.23.55H684Z"/><path class="cls-1" d="M392.22,50.45C401,20.32,425,.85,454.28.63,537,0,619.77.47,702.51.22,710,.22,716.05,3.48,716.05,13c0,37.41,2.47,37.39-34.65,37.4H392.22Z"/><path class="cls-1" d="M926.63,90.51h42.61a15,15,0,0,1,15,15V215.73A14.27,14.27,0,0,1,970,230H926.63a0,0,0,0,1,0,0V90.51A0,0,0,0,1,926.63,90.51Z"/><rect class="cls-1" x="792.47" width="328.17" height="50.67" rx="9.26"/></g></g></svg>